<svg width="66" height="32" viewBox="0 0 66 32" fill="none" xmlns="http://www.w3.org/2000/svg">
<rect x="0.599609" width="64.8" height="32" rx="16" fill="#EA5160"/>
<path fill-rule="evenodd" clip-rule="evenodd" d="M16.0022 16.57L12.248 20.3095V9.09082H16.0022V16.57ZM19.7565 12.8303V9.09082H23.5105L19.7565 12.8303ZM19.2155 13.3691L24.2264 20.6051C24.6353 21.1958 25.2834 21.892 25.9052 22.3756H22.3021C21.4865 22.3756 20.7286 22.0723 20.203 21.3084L16.5603 16.0139L19.2155 13.3691ZM30.5144 16.9796V22.2673H28.1393V9.09082H32.4453C34.9571 9.09082 36.9562 10.4085 36.9562 13.0095C36.9562 15.4395 34.8887 16.9796 32.5649 16.9796H30.5144ZM30.5144 11.2299V14.8406H32.5136C33.573 14.8406 34.5641 14.0363 34.5641 13.0095C34.5641 11.7946 33.5047 11.2299 32.3598 11.2299H30.5144ZM41.0889 13.4373C42.9343 13.4373 44.6088 14.7037 44.6088 16.6373V22.2673H42.4217V21.617L42.4013 21.6347C42.0224 21.9627 41.3742 22.524 40.1491 22.524C38.5429 22.524 37.3468 21.4117 37.3468 19.7004C37.3468 17.5956 39.4656 17.1336 40.9693 17.1336C41.4136 17.1336 42.0287 17.1507 42.4217 17.2021V16.6373C42.4217 15.8844 41.6186 15.4053 41.0889 15.4053C40.4738 15.4053 39.7732 15.5079 39.0214 16.1582L37.7228 14.8234C38.9359 13.6598 39.8928 13.4373 41.0889 13.4373ZM39.5511 19.7004C39.5511 20.1283 40.0808 20.5218 40.5421 20.5218C41.6528 20.5218 42.4217 19.8373 42.4217 19.3411V18.8277C42.0629 18.7935 41.5844 18.7764 41.2598 18.7764C40.4054 18.7764 39.5511 18.9475 39.5511 19.7004ZM51.4925 13.7111H53.748L47.7163 26.5454H45.495L48.2972 20.6074L45.2728 13.7111H47.5454L49.4421 18.2288L51.4925 13.7111Z" fill="white"/>
</svg>
